<?xml version="1.0" encoding="UTF-8" standalone="no"?>
<!DOCTYPE svg PUBLIC "-//W3C//DTD SVG 1.1//EN"
 "http://www.w3.org/Graphics/SVG/1.1/DTD/svg11.dtd">
<!-- Generated by graphviz version 2.43.0 (0)
 -->
<!-- Title: ClientServerFlow Pages: 1 -->
<svg width="1334pt" height="190pt"
 viewBox="0.00 0.00 1334.00 190.00" xmlns="http://www.w3.org/2000/svg" xmlns:xlink="http://www.w3.org/1999/xlink">
<g id="graph0" class="graph" transform="scale(1 1) rotate(0) translate(18 172)">
<title>ClientServerFlow</title>
<polygon fill="#f8fafc" stroke="transparent" points="-18,18 -18,-172 1316,-172 1316,18 -18,18"/>
<g id="clust1" class="cluster">
<title>cluster_server</title>
<path fill="#f8fafc" stroke="#9cb5c2" stroke-dasharray="5,2" d="M656,-8C656,-8 1278,-8 1278,-8 1284,-8 1290,-14 1290,-20 1290,-20 1290,-134 1290,-134 1290,-140 1284,-146 1278,-146 1278,-146 656,-146 656,-146 650,-146 644,-140 644,-134 644,-134 644,-20 644,-20 644,-14 650,-8 656,-8"/>
<text text-anchor="middle" x="967" y="-133.2" font-family="Helvetica,sans-Serif" font-size="11.00" fill="#365a6b">Headless server (NetworkServerHost, Dedicated)</text>
</g>
<!-- game -->
<g id="node1" class="node">
<title>game</title>
<path fill="#ffffff" stroke="#9cb5c2" stroke-width="1.2" d="M155,-84C155,-84 12,-84 12,-84 6,-84 0,-78 0,-72 0,-72 0,-56 0,-56 0,-50 6,-44 12,-44 12,-44 155,-44 155,-44 161,-44 167,-50 167,-56 167,-56 167,-72 167,-72 167,-78 161,-84 155,-84"/>
<text text-anchor="middle" x="83.5" y="-67.4" font-family="Helvetica,sans-Serif" font-size="12.00" fill="#193547">Game</text>
<text text-anchor="middle" x="83.5" y="-54.4" font-family="Helvetica,sans-Serif" font-size="12.00" fill="#193547">simulates its own player</text>
</g>
<!-- session -->
<g id="node2" class="node">
<title>session</title>
<path fill="#ffffff" stroke="#9cb5c2" stroke-width="1.2" d="M477,-90.5C477,-90.5 356,-90.5 356,-90.5 350,-90.5 344,-84.5 344,-78.5 344,-78.5 344,-49.5 344,-49.5 344,-43.5 350,-37.5 356,-37.5 356,-37.5 477,-37.5 477,-37.5 483,-37.5 489,-43.5 489,-49.5 489,-49.5 489,-78.5 489,-78.5 489,-84.5 483,-90.5 477,-90.5"/>
<text text-anchor="middle" x="416.5" y="-73.9" font-family="Helvetica,sans-Serif" font-size="12.00" fill="#193547">Multiplayer::Session</text>
<text text-anchor="middle" x="416.5" y="-60.9" font-family="Helvetica,sans-Serif" font-size="12.00" fill="#193547">(client&#45;server mode)</text>
<text text-anchor="middle" x="416.5" y="-47.9" font-family="Helvetica,sans-Serif" font-size="12.00" fill="#193547">NetworkClient inside</text>
</g>
<!-- game&#45;&gt;session -->
<g id="edge1" class="edge">
<title>game&#45;&gt;session</title>
<path fill="none" stroke="#478299" stroke-width="1.3" d="M167.17,-64C219,-64 285.44,-64 336.55,-64"/>
<polygon fill="#478299" stroke="#478299" stroke-width="1.3" points="336.78,-66.52 343.98,-64 336.78,-61.48 336.78,-66.52"/>
<text text-anchor="middle" x="255.5" y="-67" font-family="Helvetica,sans-Serif" font-size="10.00" fill="#365a6b">publishLocalPlayer(x, y, data)</text>
</g>
<!-- session&#45;&gt;game -->
<g id="edge7" class="edge">
<title>session&#45;&gt;game</title>
<path fill="none" stroke="#478299" stroke-width="1.3" d="M343.54,-49.78C338.3,-49.07 333.08,-48.46 328,-48 263.82,-42.18 247.24,-42.82 183,-48 180.25,-48.22 177.46,-48.48 174.64,-48.76"/>
<polygon fill="#478299" stroke="#478299" stroke-width="1.3" points="174.03,-46.3 167.15,-49.59 174.58,-51.31 174.03,-46.3"/>
<text text-anchor="middle" x="255.5" y="-51" font-family="Helvetica,sans-Serif" font-size="10.00" fill="#365a6b">remotePlayers(), platforms()</text>
</g>
<!-- handshake -->
<g id="node3" class="node">
<title>handshake</title>
<path fill="#ffffff" stroke="#9cb5c2" stroke-width="1.2" d="M777,-118C777,-118 664,-118 664,-118 658,-118 652,-112 652,-106 652,-106 652,-90 652,-90 652,-84 658,-78 664,-78 664,-78 777,-78 777,-78 783,-78 789,-84 789,-90 789,-90 789,-106 789,-106 789,-112 783,-118 777,-118"/>
<text text-anchor="middle" x="720.5" y="-101.4" font-family="Helvetica,sans-Serif" font-size="12.00" fill="#193547">Public socket :5555</text>
<text text-anchor="middle" x="720.5" y="-88.4" font-family="Helvetica,sans-Serif" font-size="12.00" fill="#193547">accepts JOIN only</text>
</g>
<!-- session&#45;&gt;handshake -->
<g id="edge2" class="edge">
<title>session&#45;&gt;handshake</title>
<path fill="none" stroke="#478299" stroke-width="1.3" d="M496.4,-72.88C542.11,-78.03 599.35,-84.47 644.4,-89.55"/>
<polygon fill="#478299" stroke="#478299" stroke-width="1.3" points="496.51,-70.36 489.07,-72.06 495.94,-75.37 496.51,-70.36"/>
<polygon fill="#478299" stroke="#478299" stroke-width="1.3" points="644.38,-92.08 651.81,-90.38 644.94,-87.07 644.38,-92.08"/>
<text text-anchor="middle" x="570.5" y="-101" font-family="Helvetica,sans-Serif" font-size="10.00" fill="#365a6b">1. JOIN / WELCOME</text>
<text text-anchor="middle" x="570.5" y="-90" font-family="Helvetica,sans-Serif" font-size="10.00" fill="#365a6b">(+ private worker address)</text>
</g>
<!-- worker -->
<g id="node4" class="node">
<title>worker</title>
<path fill="#e8f4f2" stroke="#64a49a" stroke-width="1.2" d="M1012.5,-118C1012.5,-118 884.5,-118 884.5,-118 878.5,-118 872.5,-112 872.5,-106 872.5,-106 872.5,-90 872.5,-90 872.5,-84 878.5,-78 884.5,-78 884.5,-78 1012.5,-78 1012.5,-78 1018.5,-78 1024.5,-84 1024.5,-90 1024.5,-90 1024.5,-106 1024.5,-106 1024.5,-112 1018.5,-118 1012.5,-118"/>
<text text-anchor="middle" x="948.5" y="-101.4" font-family="Helvetica,sans-Serif" font-size="12.00" fill="#193547">Private worker thread</text>
<text text-anchor="middle" x="948.5" y="-88.4" font-family="Helvetica,sans-Serif" font-size="12.00" fill="#193547">one per client</text>
</g>
<!-- session&#45;&gt;worker -->
<g id="edge4" class="edge">
<title>session&#45;&gt;worker</title>
<path fill="none" stroke="#478299" stroke-width="1.3" d="M496.69,-55.42C572.16,-48.86 688.81,-42.95 789,-56 819.32,-59.95 852.09,-67.98 879.93,-75.97"/>
<polygon fill="#478299" stroke="#478299" stroke-width="1.3" points="496.01,-52.95 489.06,-56.1 496.46,-57.97 496.01,-52.95"/>
<polygon fill="#478299" stroke="#478299" stroke-width="1.3" points="879.28,-78.4 886.89,-77.99 880.69,-73.56 879.28,-78.4"/>
<text text-anchor="middle" x="720.5" y="-59" font-family="Helvetica,sans-Serif" font-size="10.00" fill="#365a6b">2. POSITION / SNAPSHOT</text>
</g>
<!-- handshake&#45;&gt;worker -->
<g id="edge3" class="edge">
<title>handshake&#45;&gt;worker</title>
<path fill="none" stroke="#478299" stroke-width="1.3" stroke-dasharray="5,2" d="M789,-98C812.91,-98 840.09,-98 865.1,-98"/>
<polygon fill="#478299" stroke="#478299" stroke-width="1.3" points="865.24,-100.52 872.44,-98 865.24,-95.48 865.24,-100.52"/>
<text text-anchor="middle" x="819" y="-101" font-family="Helvetica,sans-Serif" font-size="10.00" fill="#365a6b">starts</text>
</g>
<!-- store -->
<g id="node5" class="node">
<title>store</title>
<path fill="#ffffff" stroke="#9cb5c2" stroke-width="1.2" d="M1270,-87C1270,-87 1093,-87 1093,-87 1087,-87 1081,-81 1081,-75 1081,-75 1081,-59 1081,-59 1081,-53 1087,-47 1093,-47 1093,-47 1270,-47 1270,-47 1276,-47 1282,-53 1282,-59 1282,-59 1282,-75 1282,-75 1282,-81 1276,-87 1270,-87"/>
<text text-anchor="middle" x="1181.5" y="-70.4" font-family="Helvetica,sans-Serif" font-size="12.00" fill="#193547">Shared state (NetworkServer)</text>
<text text-anchor="middle" x="1181.5" y="-57.4" font-family="Helvetica,sans-Serif" font-size="12.00" fill="#193547">players + platforms, locked</text>
</g>
<!-- worker&#45;&gt;store -->
<g id="edge5" class="edge">
<title>worker&#45;&gt;store</title>
<path fill="none" stroke="#478299" stroke-width="1.3" d="M1032.03,-86.93C1045.51,-85.12 1059.65,-83.22 1073.62,-81.34"/>
<polygon fill="#478299" stroke="#478299" stroke-width="1.3" points="1031.62,-84.44 1024.82,-87.89 1032.29,-89.43 1031.62,-84.44"/>
<polygon fill="#478299" stroke="#478299" stroke-width="1.3" points="1074.11,-83.82 1080.91,-80.37 1073.44,-78.83 1074.11,-83.82"/>
</g>
<!-- tick -->
<g id="node6" class="node">
<title>tick</title>
<path fill="#fff7e6" stroke="#d9a441" stroke-width="1.2" d="M1036,-56C1036,-56 861,-56 861,-56 855,-56 849,-50 849,-44 849,-44 849,-28 849,-28 849,-22 855,-16 861,-16 861,-16 1036,-16 1036,-16 1042,-16 1048,-22 1048,-28 1048,-28 1048,-44 1048,-44 1048,-50 1042,-56 1036,-56"/>
<text text-anchor="middle" x="948.5" y="-39.4" font-family="Helvetica,sans-Serif" font-size="12.00" fill="#193547">Platform thread</text>
<text text-anchor="middle" x="948.5" y="-26.4" font-family="Helvetica,sans-Serif" font-size="12.00" fill="#193547">moves platforms on real time</text>
</g>
<!-- tick&#45;&gt;store -->
<g id="edge6" class="edge">
<title>tick&#45;&gt;store</title>
<path fill="none" stroke="#478299" stroke-width="1.3" d="M1048.13,-49.24C1056.48,-50.36 1064.95,-51.49 1073.35,-52.62"/>
<polygon fill="#478299" stroke="#478299" stroke-width="1.3" points="1073.25,-55.15 1080.72,-53.61 1073.92,-50.15 1073.25,-55.15"/>
</g>
</g>
</svg>
